<?xml version="1.0" encoding="utf-8"?>
<!-- Generator: Adobe Illustrator 22.0.1, SVG Export Plug-In . SVG Version: 6.00 Build 0)  -->
<svg version="1.1" id="Layer_1" xmlns="http://www.w3.org/2000/svg" xmlns:xlink="http://www.w3.org/1999/xlink" x="0px" y="0px"
	 viewBox="0 0 310 63" style="enable-background:new 0 0 310 63;" xml:space="preserve">
<style type="text/css">
	.st0{fill:#0076C0;}
	.st1{fill:#143D8D;}
</style>
<g>
	<circle class="st0" cx="31.4" cy="33.2" r="13.9"/>
	<path class="st1" d="M31.4,50.5c10.3,0,18.6-7.2,18.6-15.9c0-3.8-1.6-6.9-4.1-9.7h1h16.8C65.2,27,66,32.2,66,34
		c0.2,16.6-17.6,29.5-35.1,28C14.3,60.6,1,47.8,1,31.6S14.8,1.1,31.7,0.9C38.3,0.8,44,2.5,48,5.3l-1.2,1.1C43.7,4.1,37.4,2.3,31.1,3
		C18.4,4.4,8.6,14.2,8.6,26.9S18.8,50.5,31.4,50.5H32H31.4z"/>
	<path class="st1" d="M76.9,9.5c1.9,0.1,3.6,0.2,3.6,2.9v19.8c0,2.5-1.3,2.7-3.6,2.9v1h14.7v-1c-2.9-0.1-4.5-0.2-4.5-2.9v-9.6
		c5.2,0,5.8,3,6.3,6.4h1V15.2h-1c-0.6,3.3-1.2,6.2-6.3,6.1v-9.5c0-1.8,0.7-1.9,3-1.9c7.1,0,8.2,2.6,9.1,6.9h1V8.6H76.9V9.5z"/>
	<path class="st1" d="M117,7.9c-7.9,0-14.4,5.6-14.4,14.5c0,8.6,6.1,14.5,14.4,14.5c8.4,0,14.4-6,14.4-14.5
		C131.4,13.5,124.9,7.9,117,7.9z M117,9.2c5.7,0,7.3,7.2,7.3,13.2c0,3.6-0.2,13.2-7.3,13.2c-7,0-7.3-9.6-7.3-13.2
		C109.7,16.5,111.2,9.2,117,9.2z"/>
	<path class="st1" d="M163.5,24.5h-14v1c2.8,0.2,4.1,0.2,4.1,2.9v4.3c0,1.8-0.7,3-4.3,3c-7.8,0-8-10.2-8-13.1
		c0-7.1,1.6-13.3,7.6-13.3c4.7,0,8.1,4.8,9.6,8.4h1V8.1h-1.1c-0.4,1-0.8,1.9-1.9,1.9c-1.1,0-4.2-2-7.9-2c-8.9,0-14.4,6.6-14.4,14.6
		c0,7.1,4.6,14.3,14.8,14.3c3.6,0,9.1-1.2,11.1-2.5v-5.2c0-3.4,1-3.5,3.5-3.8L163.5,24.5L163.5,24.5z"/>
	<path class="st1" d="M172,26.6l3.9-10l4.1,10H172z M192.5,35.1c-2,0.1-2.6-1.3-4.5-5.7L179,7.9h-1.2l-9.1,22.4
		c-1.2,3.1-1.8,4.5-4,4.8v1h8.3v-1c-1.4-0.1-3.4-0.2-3.4-1.8c0-0.7,0.7-2.3,1.8-5.3h9.2c0.6,1.3,1.9,4.3,1.9,5.5
		c0,1.4-0.7,1.4-3.3,1.6v1h13.3L192.5,35.1L192.5,35.1z"/>
	<path class="st1" d="M218.2,29.9c-3.4,3.8-6.5,5-9.7,5c-1.3,0-4.5-0.6-6.2-3.6c-1.5-2.6-1.8-6.6-1.8-9c0-6.9,1.6-13.2,7.6-13.2
		c4.7,0,8.1,4.8,9.6,8.4h1V8h-1.1c-0.4,1-0.8,1.9-1.9,1.9c-1.1,0-4.2-2-7.9-2c-8.6,0-14.4,6.4-14.4,14.6c0,7.7,5.2,14.3,14.6,14.3
		c5.3,0,8.5-2.6,11.4-6L218.2,29.9z"/>
	<path class="st1" d="M236.7,7.9c-7.9,0-14.4,5.6-14.4,14.5c0,8.6,6.1,14.5,14.4,14.5s14.4-6,14.4-14.5
		C251.1,13.5,244.5,7.9,236.7,7.9z M236.7,9.2c5.7,0,7.3,7.2,7.3,13.2c0,3.6-0.2,13.2-7.3,13.2c-7,0-7.3-9.6-7.3-13.2
		C229.4,16.5,230.9,9.2,236.7,9.2z"/>
	<path class="st1" d="M268.2,7.9c-7.9,0-14.4,5.6-14.4,14.5c0,8.6,6.1,14.5,14.4,14.5c8.4,0,14.4-6,14.4-14.5
		C282.8,13.5,276.1,7.9,268.2,7.9z M268.2,9.2c5.7,0,7.3,7.2,7.3,13.2c0,3.6-0.2,13.2-7.3,13.2c-7,0-7.3-9.6-7.3-13.2
		C261.1,16.5,262.6,9.2,268.2,9.2z"/>
	<path class="st1" d="M294.8,11.4c0-0.9,0.6-1.4,2-1.4c3.4,0,4.8,1.6,4.8,6.2c0,5.1-1.8,6.3-6.8,6.2V11.4z M284.7,36.1h13.7v-1
		c-2.8-0.4-3.6-0.5-3.6-3.8v-7.6c5.4,0,7.5-0.1,10.1-1.6c3.3-1.8,3.7-4.8,3.7-6.2c0-6.9-7.5-7.6-10.7-7.6h-13.2v1
		c2.2,0.2,3.4,0.3,3.4,3.8v18c0,2.3-0.6,2.8-1.1,3.2c-0.3,0.2-0.4,0.2-2.4,0.6L284.7,36.1L284.7,36.1z"/>
	<path class="st1" d="M76.5,46.9c0.5,0,1,0.1,1,0.8v5.6c0,0.7-0.4,0.8-1,0.8v0.3h4.2v-0.3c-0.8,0-1.3-0.1-1.3-0.8v-2.7
		c1.5,0,1.6,0.8,1.8,1.8h0.3v-3.9h-0.3c-0.2,0.9-0.3,1.7-1.8,1.7v-2.7c0-0.5,0.2-0.5,0.8-0.5c2,0,2.3,0.7,2.6,1.9h0.3v-2.3h-6.6
		V46.9z"/>
	<path class="st1" d="M83.4,51.7c0,1.5,1,2.8,2.6,2.8c1.6,0,2.6-1.3,2.6-2.8c0-1.6-1.1-2.8-2.6-2.8C84.4,48.9,83.4,50.3,83.4,51.7z
		 M85.1,51.7c0-1.3,0.1-2.5,0.9-2.5c0.7,0,0.9,0.7,0.9,2.5c0,1.5-0.1,2.4-0.9,2.4C85.1,54.2,85.1,53,85.1,51.7z"/>
	<path class="st1" d="M95.1,54.1c-0.6,0-0.6-0.4-0.6-0.7v-2.9c0-1.3-0.9-1.6-1.5-1.6c-1,0-1.5,0.7-1.6,1l0,0v-0.8h-2.2v0.3
		c0.5,0.1,0.6,0.2,0.6,0.7v3.4c0,0.6-0.2,0.6-0.6,0.7v0.3H92v-0.3c-0.5-0.1-0.6-0.4-0.6-0.7v-3.1c0-0.1,0.5-0.7,1-0.7
		c0.6,0,0.6,0.6,0.6,1v2.8c0,0.4-0.2,0.6-0.5,0.7v0.3h2.7L95.1,54.1L95.1,54.1z"/>
	<path class="st1" d="M99.1,53.1c0,0.1-0.4,0.8-1,0.8c-0.9,0-0.9-1.5-0.9-2.2c0-1.1,0.2-2.2,1-2.2c0.6,0,0.9,0.7,0.9,0.7V53.1z
		 M101.4,53.9c-0.7,0-0.7-0.4-0.7-0.7v-6.6h-2.5v0.3c0.6,0,0.9,0.1,0.9,0.7v2.1c-0.3-0.3-0.7-0.7-1.4-0.7c-1.1,0-2.2,1-2.2,3
		c0,1.7,1.1,2.7,2,2.7c0.9,0,1.2-0.3,1.6-0.8v0.8c0.7-0.2,0.8-0.2,2.3-0.4C101.4,54.3,101.4,53.9,101.4,53.9z"/>
	<path class="st1" d="M102,51.7c0,1.5,1,2.8,2.6,2.8c1.6,0,2.6-1.3,2.6-2.8c0-1.6-1.1-2.8-2.6-2.8C103,48.9,102,50.3,102,51.7z
		 M103.7,51.7c0-1.3,0.1-2.5,0.9-2.5c0.7,0,0.9,0.7,0.9,2.5c0,1.5-0.1,2.4-0.9,2.4C103.7,54.2,103.7,53,103.7,51.7z"/>
	<path class="st1" d="M114.2,53.1c0,0.1-0.4,0.8-1,0.8c-0.9,0-0.9-1.5-0.9-2.2c0-1.1,0.2-2.2,1-2.2c0.6,0,0.9,0.7,0.9,0.7V53.1z
		 M116.5,53.9c-0.7,0-0.7-0.4-0.7-0.7v-6.6h-2.5v0.3c0.6,0,0.9,0.1,0.9,0.7v2.1c-0.3-0.3-0.7-0.7-1.4-0.7c-1.1,0-2.2,1-2.2,3
		c0,1.7,1.1,2.7,2,2.7s1.2-0.3,1.6-0.8v0.8c0.7-0.2,0.8-0.2,2.3-0.4C116.5,54.3,116.5,53.9,116.5,53.9z"/>
	<path class="st1" d="M121.4,52.9c-0.2,0.3-0.6,0.8-1.3,0.8c-1.1,0-1.4-1.2-1.4-2.2h2.9c0-0.6-0.2-2.6-2.2-2.6
		c-1.3,0-2.4,1.1-2.4,2.8c0,2,1.2,2.8,2.3,2.8c0.9,0,1.6-0.4,2.3-1.4L121.4,52.9z M118.7,51.1c0-1.6,0.4-1.8,0.8-1.8
		c0.4,0,0.6,0.3,0.6,0.5c0.1,0.3,0.1,0.9,0.1,1.3H118.7z"/>
	<path class="st1" d="M133.4,51.1h-4v0.3c0.8,0,1.2,0.1,1.2,0.8v1.2c0,0.5-0.2,0.8-1.2,0.8c-2.2,0-2.3-2.9-2.3-3.7
		c0-2,0.5-3.7,2.1-3.7c1.3,0,2.3,1.4,2.7,2.4h0.3v-2.7h-0.3c-0.1,0.3-0.2,0.5-0.5,0.5s-1.2-0.6-2.2-0.6c-2.5,0-4.1,1.9-4.1,4.1
		c0,2,1.3,4.1,4.2,4.1c1,0,2.6-0.3,3.1-0.7v-1.5c0-0.9,0.3-1,1-1.1V51.1z"/>
	<path class="st1" d="M137.1,53.2c-0.2,0.2-0.4,0.5-0.8,0.5s-0.6-0.4-0.6-0.8c0-1,1.1-1.3,1.4-1.4L137.1,53.2L137.1,53.2z
		 M139.1,53.7L139.1,53.7l-0.2,0.1c-0.3,0-0.3-0.2-0.3-0.3v-3c0-1.1-1-1.6-2.3-1.6c-1.4,0-2.2,0.7-2.2,1.4c0,0.8,0.6,0.8,0.8,0.8
		c0.6,0,0.8-0.4,0.8-0.6c0-0.5-0.3-0.5-0.3-0.8c0-0.2,0.3-0.4,0.7-0.4c0.9,0,1,0.4,1,1v0.8c-1.6,0.5-3.1,1-3.1,2.2
		c0,0.9,0.7,1.2,1.3,1.2c0.3,0,1.1-0.1,1.8-0.8c0.1,0.3,0.2,0.8,1,0.8c0.5,0,0.9-0.3,1.3-0.7L139.1,53.7z"/>
	<path class="st1" d="M142.9,54.1c-0.7,0-0.8-0.2-0.8-0.9V51c0-0.8,0.5-1.1,0.7-1.1c0.4,0,0.4,0.7,1,0.7s0.7-0.5,0.7-0.8
		s-0.2-0.9-1-0.9c-0.8,0-1.3,0.7-1.5,1.1l0,0v-0.9h-2.2v0.3c0.3,0,0.6,0.1,0.6,0.7v3.4c0,0.6-0.3,0.6-0.6,0.7v0.3h3.1V54.1z"/>
	<path class="st1" d="M148,53.2c-0.2,0.2-0.4,0.5-0.8,0.5s-0.6-0.4-0.6-0.8c0-1,1.1-1.3,1.4-1.4L148,53.2L148,53.2z M150.1,53.7
		L150.1,53.7l-0.2,0.1c-0.3,0-0.3-0.2-0.3-0.3v-3c0-1.1-1-1.6-2.3-1.6c-1.4,0-2.2,0.7-2.2,1.4c0,0.8,0.6,0.8,0.8,0.8
		c0.6,0,0.8-0.4,0.8-0.6c0-0.5-0.3-0.5-0.3-0.8c0-0.2,0.3-0.4,0.7-0.4c0.9,0,1,0.4,1,1v0.8c-1.6,0.5-3.1,1-3.1,2.2
		c0,0.9,0.7,1.2,1.3,1.2c0.3,0,1.1-0.1,1.8-0.8c0.1,0.3,0.2,0.8,1,0.8c0.5,0,0.9-0.3,1.3-0.7L150.1,53.7z"/>
	<path class="st1" d="M156.5,54.1c-0.6,0-0.6-0.4-0.6-0.7v-2.9c0-1.3-0.9-1.6-1.5-1.6c-1,0-1.5,0.7-1.6,1l0,0v-0.8h-2.2v0.3
		c0.5,0.1,0.6,0.2,0.6,0.7v3.4c0,0.6-0.2,0.6-0.6,0.7v0.3h2.8v-0.3c-0.5-0.1-0.6-0.4-0.6-0.7v-3.1c0-0.1,0.5-0.7,1-0.7
		c0.6,0,0.6,0.6,0.6,1v2.8c0,0.4-0.2,0.6-0.5,0.7v0.3h2.7L156.5,54.1L156.5,54.1z"/>
	<path class="st1" d="M160.2,49.1h-1.1v-2h-0.3c-0.8,1.1-1.3,1.6-1.9,2.2v0.3h0.6v3.7c0,0.2,0.1,1.2,1.3,1.2c1,0,1.5-0.8,1.7-1.3
		l-0.3-0.1c-0.1,0.2-0.3,0.6-0.7,0.6c-0.5,0-0.5-0.5-0.5-0.7v-3.5h1.1L160.2,49.1L160.2,49.1z"/>
	<path class="st1" d="M163.5,54.1c-0.5,0-0.5-0.3-0.5-0.7V49h-2.2v0.3c0.4,0.1,0.6,0.2,0.6,0.7v3.4c0,0.6-0.2,0.6-0.6,0.7v0.3h2.8
		L163.5,54.1L163.5,54.1z M163.4,47.3c0.3-0.2,0.5-0.3,0.5-0.6c0-0.4-0.4-0.5-0.6-0.5c-0.1,0-0.3,0-0.6,0.3l-1.6,1.8h0.6L163.4,47.3
		z"/>
	<path class="st1" d="M167.2,53.2c-0.2,0.2-0.4,0.5-0.8,0.5c-0.4,0-0.6-0.4-0.6-0.8c0-1,1.1-1.3,1.4-1.4L167.2,53.2L167.2,53.2z
		 M169.2,53.7L169.2,53.7l-0.2,0.1c-0.3,0-0.3-0.2-0.3-0.3v-3c0-1.1-1-1.6-2.3-1.6c-1.4,0-2.2,0.7-2.2,1.4c0,0.8,0.6,0.8,0.8,0.8
		c0.6,0,0.8-0.4,0.8-0.6c0-0.5-0.3-0.5-0.3-0.8c0-0.2,0.3-0.4,0.7-0.4c0.9,0,1,0.4,1,1v0.8c-1.6,0.5-3.1,1-3.1,2.2
		c0,0.9,0.7,1.2,1.3,1.2c0.3,0,1.1-0.1,1.8-0.8c0.1,0.3,0.2,0.8,1,0.8c0.5,0,0.9-0.3,1.3-0.7L169.2,53.7z"/>
	<path class="st1" d="M173.5,50.6v-1.7h-0.3c0,0.1-0.1,0.2-0.3,0.2c-0.2,0-0.7-0.3-1.2-0.3c-1.1,0-1.8,0.7-1.8,1.7
		c0,1.8,2.8,1.7,2.8,2.8c0,0.3-0.2,0.8-0.8,0.8c-1.3,0-1.6-1.2-1.6-1.5H170v1.9h0.3c0.1-0.2,0.2-0.3,0.3-0.3s0.9,0.3,1.5,0.3
		c1.1,0,1.8-0.7,1.8-1.8c0-1.9-2.7-1.6-2.7-2.8c0-0.4,0.3-0.7,0.7-0.7c0.7,0,1.2,0.5,1.4,1.3L173.5,50.6L173.5,50.6z"/>
	<path class="st1" d="M180.8,53.1c0,0.1-0.4,0.8-1,0.8c-0.9,0-0.9-1.5-0.9-2.2c0-1.1,0.2-2.2,1-2.2c0.6,0,0.9,0.7,0.9,0.7V53.1z
		 M183,53.9c-0.7,0-0.7-0.4-0.7-0.7v-6.6h-2.5v0.3c0.6,0,0.9,0.1,0.9,0.7v2.1c-0.3-0.3-0.7-0.7-1.4-0.7c-1.1,0-2.2,1-2.2,3
		c0,1.7,1.1,2.7,2,2.7s1.2-0.3,1.6-0.8v0.8c0.7-0.2,0.8-0.2,2.3-0.4L183,53.9L183,53.9z"/>
	<path class="st1" d="M187.9,52.9c-0.2,0.3-0.6,0.8-1.3,0.8c-1.1,0-1.4-1.2-1.4-2.2h2.9c0-0.6-0.2-2.6-2.2-2.6
		c-1.3,0-2.4,1.1-2.4,2.8c0,2,1.2,2.8,2.3,2.8c0.9,0,1.6-0.4,2.3-1.4L187.9,52.9z M185.2,51.1c0-1.6,0.4-1.8,0.8-1.8
		c0.4,0,0.6,0.3,0.6,0.5c0.1,0.3,0.1,0.9,0.1,1.3H185.2z"/>
	<path class="st1" d="M191.5,46.9c0.5,0,1,0.1,1,0.8v5.6c0,0.7-0.4,0.8-1,0.8v0.3h6.8l0.5-2.4h-0.3c-0.7,1.7-1.9,2-3,2
		c-0.8,0-1-0.1-1-0.6v-2.8c1.1,0,1.7,0.3,1.9,1.8h0.3v-3.9h-0.3c-0.2,1.4-0.8,1.7-1.9,1.7v-2.7c0-0.5,0.2-0.5,0.8-0.5
		c1.6,0,2.4,0.3,2.6,1.9h0.3v-2.3h-6.7L191.5,46.9L191.5,46.9z"/>
	<path class="st1" d="M205.2,54.1c-0.6,0-0.6-0.4-0.6-0.7v-2.9c0-1.3-0.9-1.6-1.5-1.6c-1,0-1.5,0.7-1.6,1l0,0v-0.8h-2.2v0.3
		c0.5,0.1,0.6,0.2,0.6,0.7v3.4c0,0.6-0.2,0.6-0.6,0.7v0.3h2.8v-0.3c-0.5-0.1-0.6-0.4-0.6-0.7v-3.1c0-0.1,0.5-0.7,1-0.7
		c0.6,0,0.6,0.6,0.6,1v2.8c0,0.4-0.2,0.6-0.5,0.7v0.3h2.7L205.2,54.1L205.2,54.1z"/>
	<path class="st1" d="M209,49.1h-1.1v-2h-0.3c-0.8,1.1-1.3,1.6-1.9,2.2v0.3h0.6v3.7c0,0.2,0.1,1.2,1.3,1.2c1,0,1.5-0.8,1.7-1.3
		l-0.3-0.1c-0.1,0.2-0.3,0.6-0.7,0.6c-0.5,0-0.5-0.5-0.5-0.7v-3.5h1.1L209,49.1L209,49.1z"/>
	<path class="st1" d="M210,47.3c0,0.5,0.4,0.9,0.9,0.9c0.5,0,0.9-0.4,0.9-0.9c0-0.5-0.4-0.9-0.9-0.9C210.4,46.4,210,46.8,210,47.3z
		 M212.1,54.1c-0.5,0-0.5-0.3-0.5-0.7V49h-2.2v0.3c0.4,0.1,0.6,0.2,0.6,0.7v3.4c0,0.6-0.2,0.6-0.6,0.7v0.3h2.8L212.1,54.1
		L212.1,54.1z"/>
	<path class="st1" d="M216.3,53.1c0,0.1-0.4,0.8-1,0.8c-0.9,0-0.9-1.5-0.9-2.2c0-1.1,0.2-2.2,1-2.2c0.6,0,0.9,0.7,0.9,0.7V53.1z
		 M218.6,53.9c-0.7,0-0.7-0.4-0.7-0.7v-6.6h-2.5v0.3c0.6,0,0.9,0.1,0.9,0.7v2.1c-0.3-0.3-0.7-0.7-1.4-0.7c-1.1,0-2.2,1-2.2,3
		c0,1.7,1.1,2.7,2,2.7s1.2-0.3,1.6-0.8v0.8c0.7-0.2,0.8-0.2,2.3-0.4L218.6,53.9L218.6,53.9z"/>
	<path class="st1" d="M222.2,53.2c-0.2,0.2-0.4,0.5-0.8,0.5c-0.4,0-0.6-0.4-0.6-0.8c0-1,1.1-1.3,1.4-1.4L222.2,53.2L222.2,53.2z
		 M224.3,53.7L224.3,53.7l-0.2,0.1c-0.3,0-0.3-0.2-0.3-0.3v-3c0-1.1-1-1.6-2.3-1.6c-1.4,0-2.2,0.7-2.2,1.4c0,0.8,0.6,0.8,0.8,0.8
		c0.6,0,0.8-0.4,0.8-0.6c0-0.5-0.3-0.5-0.3-0.8c0-0.2,0.3-0.4,0.7-0.4c0.9,0,1,0.4,1,1v0.8c-1.6,0.5-3.1,1-3.1,2.2
		c0,0.9,0.7,1.2,1.3,1.2c0.3,0,1.1-0.1,1.8-0.8c0.1,0.3,0.2,0.8,1,0.8c0.5,0,0.9-0.3,1.3-0.7L224.3,53.7z"/>
	<path class="st1" d="M228.5,53.1c0,0.1-0.4,0.8-1,0.8c-0.9,0-0.9-1.5-0.9-2.2c0-1.1,0.2-2.2,1-2.2c0.6,0,0.9,0.7,0.9,0.7V53.1z
		 M230.8,53.9c-0.7,0-0.7-0.4-0.7-0.7v-6.6h-2.5v0.3c0.6,0,0.9,0.1,0.9,0.7v2.1c-0.3-0.3-0.7-0.7-1.4-0.7c-1.1,0-2.2,1-2.2,3
		c0,1.7,1.1,2.7,2,2.7s1.2-0.3,1.6-0.8v0.8c0.7-0.2,0.8-0.2,2.3-0.4L230.8,53.9L230.8,53.9z"/>
	<path class="st1" d="M235.7,52.9c-0.2,0.3-0.6,0.8-1.3,0.8c-1.1,0-1.4-1.2-1.4-2.2h2.9c0-0.6-0.2-2.6-2.2-2.6
		c-1.3,0-2.4,1.1-2.4,2.8c0,2,1.2,2.8,2.3,2.8c0.9,0,1.6-0.4,2.3-1.4L235.7,52.9z M232.9,51.1c0-1.6,0.4-1.8,0.8-1.8
		c0.4,0,0.6,0.3,0.6,0.5c0.1,0.3,0.1,0.9,0.1,1.3H232.9z"/>
	<path class="st1" d="M240,50.6v-1.7h-0.3c0,0.1-0.1,0.2-0.3,0.2s-0.7-0.3-1.2-0.3c-1.1,0-1.8,0.7-1.8,1.7c0,1.8,2.8,1.7,2.8,2.8
		c0,0.3-0.2,0.8-0.8,0.8c-1.3,0-1.6-1.2-1.6-1.5h-0.3v1.9h0.3c0.1-0.2,0.2-0.3,0.3-0.3c0.1,0,0.9,0.3,1.5,0.3c1.1,0,1.8-0.7,1.8-1.8
		c0-1.9-2.7-1.6-2.7-2.8c0-0.4,0.3-0.7,0.7-0.7c0.7,0,1.2,0.5,1.4,1.3L240,50.6L240,50.6z"/>
	<path class="st1" d="M251,52.6c-1,1.1-1.8,1.4-2.7,1.4c-0.4,0-1.3-0.2-1.8-1c-0.4-0.7-0.5-1.8-0.5-2.5c0-2,0.5-3.7,2.1-3.7
		c1.3,0,2.3,1.4,2.7,2.4h0.3v-2.7h-0.3c-0.1,0.3-0.2,0.5-0.5,0.5s-1.2-0.6-2.2-0.6c-2.4,0-4.1,1.8-4.1,4.1c0,2.2,1.5,4.1,4.1,4.1
		c1.5,0,2.4-0.7,3.2-1.7L251,52.6z"/>
	<path class="st1" d="M252.1,51.7c0,1.5,1,2.8,2.6,2.8s2.6-1.3,2.6-2.8c0-1.6-1.1-2.8-2.6-2.8C253.1,48.9,252.1,50.3,252.1,51.7z
		 M253.8,51.7c0-1.3,0.1-2.5,0.9-2.5c0.7,0,0.9,0.7,0.9,2.5c0,1.5-0.1,2.4-0.9,2.4C253.8,54.2,253.8,53,253.8,51.7z"/>
	<path class="st1" d="M257.9,51.7c0,1.5,1,2.8,2.6,2.8s2.6-1.3,2.6-2.8c0-1.6-1.1-2.8-2.6-2.8C258.9,48.9,257.9,50.3,257.9,51.7z
		 M259.6,51.7c0-1.3,0.1-2.5,0.9-2.5c0.7,0,0.9,0.7,0.9,2.5c0,1.5-0.1,2.4-0.9,2.4C259.6,54.2,259.6,53,259.6,51.7z"/>
	<path class="st1" d="M266.7,56.5c-0.5,0-0.9-0.1-0.9-1v-1.6c0.4,0.4,0.7,0.7,1.4,0.7c1.2,0,2.2-1,2.2-2.9c0-1.9-1.1-2.7-2.1-2.7
		c-0.9,0-1.3,0.5-1.5,0.9l0,0v-0.8h-2.2v0.3c0.5,0.1,0.6,0.2,0.6,0.7v5.8c0,0.5-0.1,0.6-0.6,0.7v0.3h3.2L266.7,56.5L266.7,56.5z
		 M265.8,50.4c0-0.2,0.5-0.8,1-0.8c0.8,0,0.9,1.3,0.9,2.2c0,0.6,0,2.1-1,2.1c-0.6,0-0.9-0.7-0.9-0.7V50.4z"/>
	<path class="st1" d="M274.3,52.9c-0.2,0.3-0.6,0.8-1.3,0.8c-1.1,0-1.4-1.2-1.4-2.2h2.9c0-0.6-0.2-2.6-2.2-2.6
		c-1.3,0-2.4,1.1-2.4,2.8c0,2,1.2,2.8,2.3,2.8c0.9,0,1.6-0.4,2.3-1.4L274.3,52.9z M271.6,51.1c0-1.6,0.4-1.8,0.8-1.8
		c0.4,0,0.6,0.3,0.6,0.5c0.1,0.3,0.1,0.9,0.1,1.3H271.6z"/>
	<path class="st1" d="M278.2,54.1c-0.7,0-0.8-0.2-0.8-0.9V51c0-0.8,0.5-1.1,0.7-1.1c0.4,0,0.4,0.7,1,0.7s0.7-0.5,0.7-0.8
		s-0.2-0.9-1-0.9c-0.8,0-1.3,0.7-1.5,1.1l0,0v-0.9h-2.2v0.3c0.3,0,0.6,0.1,0.6,0.7v3.4c0,0.6-0.3,0.6-0.6,0.7v0.3h3.1L278.2,54.1
		L278.2,54.1z"/>
	<path class="st1" d="M283.3,53.2c-0.2,0.2-0.4,0.5-0.8,0.5s-0.6-0.4-0.6-0.8c0-1,1.1-1.3,1.4-1.4V53.2z M285.4,53.7L285.4,53.7
		l-0.2,0.1c-0.3,0-0.3-0.2-0.3-0.3v-3c0-1.1-1-1.6-2.3-1.6c-1.4,0-2.2,0.7-2.2,1.4c0,0.8,0.6,0.8,0.8,0.8c0.6,0,0.8-0.4,0.8-0.6
		c0-0.5-0.3-0.5-0.3-0.8c0-0.2,0.3-0.4,0.7-0.4c0.9,0,1,0.4,1,1v0.8c-1.6,0.5-3.1,1-3.1,2.2c0,0.9,0.7,1.2,1.3,1.2
		c0.3,0,1.1-0.1,1.8-0.8c0.1,0.3,0.2,0.8,1,0.8c0.5,0,0.9-0.3,1.3-0.7L285.4,53.7z"/>
	<path class="st1" d="M289.3,49.1h-1.1v-2h-0.3c-0.8,1.1-1.3,1.6-1.9,2.2v0.3h0.6v3.7c0,0.2,0.1,1.2,1.3,1.2c1,0,1.5-0.8,1.7-1.3
		l-0.3-0.1c-0.1,0.2-0.3,0.6-0.7,0.6c-0.5,0-0.5-0.5-0.5-0.7v-3.5h1.1L289.3,49.1L289.3,49.1z"/>
	<path class="st1" d="M290.3,47.3c0,0.5,0.4,0.9,0.9,0.9c0.5,0,0.9-0.4,0.9-0.9c0-0.5-0.4-0.9-0.9-0.9
		C290.7,46.4,290.3,46.8,290.3,47.3z M292.5,54.1c-0.5,0-0.5-0.3-0.5-0.7V49h-2.2v0.3c0.4,0.1,0.6,0.2,0.6,0.7v3.4
		c0,0.6-0.2,0.6-0.6,0.7v0.3h2.8L292.5,54.1L292.5,54.1z"/>
	<path class="st1" d="M298.2,49.1h-1.7v0.3c0.3,0,0.6,0,0.6,0.4c0,0.2,0,0.3-0.1,0.5l-0.8,2.1l-0.9-2.3c-0.1-0.3-0.1-0.3-0.1-0.3
		c0-0.3,0.2-0.3,0.6-0.3v-0.3H293v0.3c0.3,0,0.3,0,0.5,0.3c0.1,0.1,0.4,0.9,0.7,1.5l1.4,3.4h0.3l1.7-4.7c0.2-0.6,0.4-0.6,0.7-0.6
		V49.1z"/>
	<path class="st1" d="M301.6,53.2c-0.2,0.2-0.4,0.5-0.8,0.5c-0.4,0-0.6-0.4-0.6-0.8c0-1,1.1-1.3,1.4-1.4V53.2z M303.7,53.7
		L303.7,53.7l-0.2,0.1c-0.3,0-0.3-0.2-0.3-0.3v-3c0-1.1-1-1.6-2.3-1.6c-1.4,0-2.2,0.7-2.2,1.4c0,0.8,0.6,0.8,0.8,0.8
		c0.6,0,0.8-0.4,0.8-0.6c0-0.5-0.3-0.5-0.3-0.8c0-0.2,0.3-0.4,0.7-0.4c0.9,0,1,0.4,1,1v0.8c-1.6,0.5-3.1,1-3.1,2.2
		c0,0.9,0.7,1.2,1.3,1.2c0.3,0,1.1-0.1,1.8-0.8c0.1,0.3,0.2,0.8,1,0.8c0.5,0,0.9-0.3,1.3-0.7L303.7,53.7z"/>
	<path class="st1" d="M308,50.6v-1.7h-0.3c0,0.1-0.1,0.2-0.3,0.2c-0.2,0-0.7-0.3-1.2-0.3c-1.1,0-1.8,0.7-1.8,1.7
		c0,1.8,2.8,1.7,2.8,2.8c0,0.3-0.2,0.8-0.8,0.8c-1.3,0-1.6-1.2-1.6-1.5h-0.3v1.9h0.3c0.1-0.2,0.2-0.3,0.3-0.3s0.9,0.3,1.5,0.3
		c1.1,0,1.8-0.7,1.8-1.8c0-1.9-2.7-1.6-2.7-2.8c0-0.4,0.3-0.7,0.7-0.7c0.7,0,1.2,0.5,1.4,1.3L308,50.6L308,50.6z"/>
	<path class="st1" d="M308.5,41.7H77.1c-0.3,0-0.5-0.2-0.5-0.5s0.2-0.5,0.5-0.5h231.4c0.3,0,0.5,0.2,0.5,0.5S308.8,41.7,308.5,41.7z
		"/>
</g>
</svg>
